<?xml version="1.0" encoding="UTF-8" standalone="no"?>
<!DOCTYPE svg PUBLIC "-//W3C//DTD SVG 1.1//EN"
 "http://www.w3.org/Graphics/SVG/1.1/DTD/svg11.dtd">
<!-- Generated by graphviz version 2.43.0 (0)
 -->
<!-- Title: G Pages: 1 -->
<svg width="3810pt" height="220pt"
 viewBox="0.00 0.00 3810.00 220.00" xmlns="http://www.w3.org/2000/svg" xmlns:xlink="http://www.w3.org/1999/xlink">
<g id="graph0" class="graph" transform="scale(1 1) rotate(0) translate(4 216)">
<title>G</title>
<polygon fill="white" stroke="transparent" points="-4,4 -4,-216 3806,-216 3806,4 -4,4"/>
<g id="clust1" class="cluster">
<title>cluster_G</title>
<path fill="#808080" fill-opacity="0.094118" stroke="black" d="M20,-8C20,-8 3782,-8 3782,-8 3788,-8 3794,-14 3794,-20 3794,-20 3794,-192 3794,-192 3794,-198 3788,-204 3782,-204 3782,-204 20,-204 20,-204 14,-204 8,-198 8,-192 8,-192 8,-20 8,-20 8,-14 14,-8 20,-8"/>
</g>
<!-- cal_layered_conf_num -->
<g id="node1" class="node">
<title>cal_layered_conf_num</title>
<ellipse fill="#ffffff" fill-opacity="0.698039" stroke="black" cx="3574" cy="-178" rx="111.58" ry="18"/>
<text text-anchor="middle" x="3574" y="-174.3" font-family="Times,serif" font-size="14.00" fill="#000000">cal_layered_conf_num</text>
</g>
<!-- cal_layered_conf_num__find_indirect_refs -->
<g id="node6" class="node">
<title>cal_layered_conf_num__find_indirect_refs</title>
<ellipse fill="#ffffff" fill-opacity="0.698039" stroke="black" cx="3475" cy="-106" rx="90.98" ry="18"/>
<text text-anchor="middle" x="3475" y="-102.3" font-family="Times,serif" font-size="14.00" fill="#000000">find_indirect_refs</text>
</g>
<!-- cal_layered_conf_num&#45;&gt;cal_layered_conf_num__find_indirect_refs -->
<g id="edge1" class="edge">
<title>cal_layered_conf_num&#45;&gt;cal_layered_conf_num__find_indirect_refs</title>
<path fill="none" stroke="#000000" d="M3550.29,-160.23C3537.31,-151.06 3521.05,-139.56 3506.96,-129.6"/>
<polygon fill="#000000" stroke="#000000" points="3508.71,-126.55 3498.52,-123.63 3504.66,-132.26 3508.71,-126.55"/>
</g>
<!-- cal_layered_conf_num__find_layers_refs -->
<g id="node7" class="node">
<title>cal_layered_conf_num__find_layers_refs</title>
<ellipse fill="#ffffff" fill-opacity="0.698039" stroke="black" cx="3685" cy="-106" rx="83.39" ry="18"/>
<text text-anchor="middle" x="3685" y="-102.3" font-family="Times,serif" font-size="14.00" fill="#000000">find_layers_refs</text>
</g>
<!-- cal_layered_conf_num&#45;&gt;cal_layered_conf_num__find_layers_refs -->
<g id="edge2" class="edge">
<title>cal_layered_conf_num&#45;&gt;cal_layered_conf_num__find_layers_refs</title>
<path fill="none" stroke="#000000" d="M3600.31,-160.41C3615.34,-150.93 3634.38,-138.92 3650.59,-128.7"/>
<polygon fill="#000000" stroke="#000000" points="3652.67,-131.52 3659.27,-123.23 3648.94,-125.6 3652.67,-131.52"/>
</g>
<!-- check_layered_conf_norm -->
<g id="node2" class="node">
<title>check_layered_conf_norm</title>
<ellipse fill="#ffffff" fill-opacity="0.698039" stroke="black" cx="2398" cy="-178" rx="128.88" ry="18"/>
<text text-anchor="middle" x="2398" y="-174.3" font-family="Times,serif" font-size="14.00" fill="#000000">check_layered_conf_norm</text>
</g>
<!-- check_layered_conf_norm__cal_mean_layered_conf -->
<g id="node8" class="node">
<title>check_layered_conf_norm__cal_mean_layered_conf</title>
<ellipse fill="#ffffff" fill-opacity="0.698039" stroke="black" cx="1575" cy="-106" rx="116.18" ry="18"/>
<text text-anchor="middle" x="1575" y="-102.3" font-family="Times,serif" font-size="14.00" fill="#000000">cal_mean_layered_conf</text>
</g>
<!-- check_layered_conf_norm&#45;&gt;check_layered_conf_norm__cal_mean_layered_conf -->
<g id="edge11" class="edge">
<title>check_layered_conf_norm&#45;&gt;check_layered_conf_norm__cal_mean_layered_conf</title>
<path fill="none" stroke="#000000" d="M2281.72,-170.29C2143.01,-161.79 1904.24,-145.62 1700,-124 1689.33,-122.87 1678.16,-121.55 1667.08,-120.15"/>
<polygon fill="#000000" stroke="#000000" points="1667.31,-116.65 1656.95,-118.85 1666.42,-123.6 1667.31,-116.65"/>
</g>
<!-- check_layered_conf_norm__generate_exam_arr -->
<g id="node9" class="node">
<title>check_layered_conf_norm__generate_exam_arr</title>
<ellipse fill="#ffffff" fill-opacity="0.698039" stroke="black" cx="1809" cy="-106" rx="100.18" ry="18"/>
<text text-anchor="middle" x="1809" y="-102.3" font-family="Times,serif" font-size="14.00" fill="#000000">generate_exam_arr</text>
</g>
<!-- check_layered_conf_norm&#45;&gt;check_layered_conf_norm__generate_exam_arr -->
<g id="edge9" class="edge">
<title>check_layered_conf_norm&#45;&gt;check_layered_conf_norm__generate_exam_arr</title>
<path fill="none" stroke="#000000" d="M2299.7,-166.27C2206.13,-155.92 2061.38,-139.58 1936,-124 1923.16,-122.4 1909.6,-120.66 1896.3,-118.91"/>
<polygon fill="#000000" stroke="#000000" points="1896.58,-115.41 1886.2,-117.57 1895.66,-122.35 1896.58,-115.41"/>
</g>
<!-- check_layered_conf_norm__normaltest_check_layered_conf -->
<g id="node10" class="node">
<title>check_layered_conf_norm__normaltest_check_layered_conf</title>
<ellipse fill="#ffffff" fill-opacity="0.698039" stroke="black" cx="2100" cy="-106" rx="155.17" ry="18"/>
<text text-anchor="middle" x="2100" y="-102.3" font-family="Times,serif" font-size="14.00" fill="#000000">normaltest_check_layered_conf</text>
</g>
<!-- check_layered_conf_norm&#45;&gt;check_layered_conf_norm__normaltest_check_layered_conf -->
<g id="edge5" class="edge">
<title>check_layered_conf_norm&#45;&gt;check_layered_conf_norm__normaltest_check_layered_conf</title>
<path fill="none" stroke="#000000" d="M2335.17,-162.24C2288.52,-151.28 2224.7,-136.29 2175.32,-124.69"/>
<polygon fill="#000000" stroke="#000000" points="2175.86,-121.22 2165.33,-122.34 2174.26,-128.04 2175.86,-121.22"/>
</g>
<!-- check_layered_conf_norm__plot_layer_num_lambdas -->
<g id="node11" class="node">
<title>check_layered_conf_norm__plot_layer_num_lambdas</title>
<ellipse fill="#ffffff" fill-opacity="0.698039" stroke="black" cx="2398" cy="-106" rx="124.58" ry="18"/>
<text text-anchor="middle" x="2398" y="-102.3" font-family="Times,serif" font-size="14.00" fill="#000000">plot_layer_num_lambdas</text>
</g>
<!-- check_layered_conf_norm&#45;&gt;check_layered_conf_norm__plot_layer_num_lambdas -->
<g id="edge7" class="edge">
<title>check_layered_conf_norm&#45;&gt;check_layered_conf_norm__plot_layer_num_lambdas</title>
<path fill="none" stroke="#000000" d="M2398,-159.7C2398,-151.98 2398,-142.71 2398,-134.11"/>
<polygon fill="#000000" stroke="#000000" points="2401.5,-134.1 2398,-124.1 2394.5,-134.1 2401.5,-134.1"/>
</g>
<!-- check_layered_conf_norm__plot_mu_sigma_layer -->
<g id="node12" class="node">
<title>check_layered_conf_norm__plot_mu_sigma_layer</title>
<ellipse fill="#ffffff" fill-opacity="0.698039" stroke="black" cx="2649" cy="-106" rx="107.78" ry="18"/>
<text text-anchor="middle" x="2649" y="-102.3" font-family="Times,serif" font-size="14.00" fill="#000000">plot_mu_sigma_layer</text>
</g>
<!-- check_layered_conf_norm&#45;&gt;check_layered_conf_norm__plot_mu_sigma_layer -->
<g id="edge6" class="edge">
<title>check_layered_conf_norm&#45;&gt;check_layered_conf_norm__plot_mu_sigma_layer</title>
<path fill="none" stroke="#000000" d="M2453.08,-161.64C2492.41,-150.67 2545.38,-135.9 2586.33,-124.48"/>
<polygon fill="#000000" stroke="#000000" points="2587.5,-127.78 2596.19,-121.73 2585.62,-121.04 2587.5,-127.78"/>
</g>
<!-- check_layered_conf_norm__plot_norm_simu_comparisons -->
<g id="node13" class="node">
<title>check_layered_conf_norm__plot_norm_simu_comparisons</title>
<ellipse fill="#ffffff" fill-opacity="0.698039" stroke="black" cx="2922" cy="-106" rx="147.57" ry="18"/>
<text text-anchor="middle" x="2922" y="-102.3" font-family="Times,serif" font-size="14.00" fill="#000000">plot_norm_simu_comparisons</text>
</g>
<!-- check_layered_conf_norm&#45;&gt;check_layered_conf_norm__plot_norm_simu_comparisons -->
<g id="edge8" class="edge">
<title>check_layered_conf_norm&#45;&gt;check_layered_conf_norm__plot_norm_simu_comparisons</title>
<path fill="none" stroke="#000000" d="M2487.48,-165.05C2578.53,-152.88 2719.61,-134.04 2816.15,-121.14"/>
<polygon fill="#000000" stroke="#000000" points="2816.78,-124.59 2826.23,-119.79 2815.86,-117.65 2816.78,-124.59"/>
</g>
<!-- check_layered_conf_norm__shapiro_check_layered_conf -->
<g id="node14" class="node">
<title>check_layered_conf_norm__shapiro_check_layered_conf</title>
<ellipse fill="#ffffff" fill-opacity="0.698039" stroke="black" cx="3227" cy="-106" rx="139.18" ry="18"/>
<text text-anchor="middle" x="3227" y="-102.3" font-family="Times,serif" font-size="14.00" fill="#000000">shapiro_check_layered_conf</text>
</g>
<!-- check_layered_conf_norm&#45;&gt;check_layered_conf_norm__shapiro_check_layered_conf -->
<g id="edge10" class="edge">
<title>check_layered_conf_norm&#45;&gt;check_layered_conf_norm__shapiro_check_layered_conf</title>
<path fill="none" stroke="#000000" d="M2511.38,-169.45C2646.63,-160.16 2879.51,-143.21 3079,-124 3091.82,-122.77 3105.26,-121.37 3118.58,-119.92"/>
<polygon fill="#000000" stroke="#000000" points="3119.18,-123.37 3128.74,-118.8 3118.41,-116.41 3119.18,-123.37"/>
</g>
<!-- core -->
<g id="node3" class="node">
<title>core</title>
<ellipse fill="#ffffff" fill-opacity="0.698039" stroke="black" cx="1798" cy="-178" rx="30.59" ry="18"/>
<text text-anchor="middle" x="1798" y="-174.3" font-family="Times,serif" font-size="14.00" fill="#000000">core</text>
</g>
<!-- core_multiprocessing -->
<g id="node4" class="node">
<title>core_multiprocessing</title>
<ellipse fill="#ffffff" fill-opacity="0.698039" stroke="black" cx="1291" cy="-178" rx="109.68" ry="18"/>
<text text-anchor="middle" x="1291" y="-174.3" font-family="Times,serif" font-size="14.00" fill="#000000">core_multiprocessing</text>
</g>
<!-- core_multiprocessing__simulation -->
<g id="node15" class="node">
<title>core_multiprocessing__simulation</title>
<ellipse fill="#ffffff" fill-opacity="0.698039" stroke="black" cx="1216" cy="-106" rx="59.59" ry="18"/>
<text text-anchor="middle" x="1216" y="-102.3" font-family="Times,serif" font-size="14.00" fill="#000000">simulation</text>
</g>
<!-- core_multiprocessing&#45;&gt;core_multiprocessing__simulation -->
<g id="edge13" class="edge">
<title>core_multiprocessing&#45;&gt;core_multiprocessing__simulation</title>
<path fill="none" stroke="#000000" d="M1272.84,-160.05C1263.31,-151.16 1251.48,-140.11 1241.08,-130.41"/>
<polygon fill="#000000" stroke="#000000" points="1243.17,-127.57 1233.47,-123.31 1238.39,-132.69 1243.17,-127.57"/>
</g>
<!-- core_multiprocessing__start_process -->
<g id="node16" class="node">
<title>core_multiprocessing__start_process</title>
<ellipse fill="#ffffff" fill-opacity="0.698039" stroke="black" cx="1367" cy="-106" rx="73.39" ry="18"/>
<text text-anchor="middle" x="1367" y="-102.3" font-family="Times,serif" font-size="14.00" fill="#000000">start_process</text>
</g>
<!-- core_multiprocessing&#45;&gt;core_multiprocessing__start_process -->
<g id="edge14" class="edge">
<title>core_multiprocessing&#45;&gt;core_multiprocessing__start_process</title>
<path fill="none" stroke="#000000" d="M1309.4,-160.05C1319.08,-151.13 1331.11,-140.06 1341.66,-130.34"/>
<polygon fill="#000000" stroke="#000000" points="1344.05,-132.9 1349.03,-123.55 1339.31,-127.75 1344.05,-132.9"/>
</g>
<!-- plot -->
<g id="node5" class="node">
<title>plot</title>
<ellipse fill="#ffffff" fill-opacity="0.698039" stroke="black" cx="552" cy="-178" rx="28.7" ry="18"/>
<text text-anchor="middle" x="552" y="-174.3" font-family="Times,serif" font-size="14.00" fill="#000000">plot</text>
</g>
<!-- plot__average_conf_time_by_lambda -->
<g id="node17" class="node">
<title>plot__average_conf_time_by_lambda</title>
<ellipse fill="#ffffff" fill-opacity="0.698039" stroke="black" cx="167" cy="-106" rx="151.37" ry="18"/>
<text text-anchor="middle" x="167" y="-102.3" font-family="Times,serif" font-size="14.00" fill="#000000">average_conf_time_by_lambda</text>
</g>
<!-- plot&#45;&gt;plot__average_conf_time_by_lambda -->
<g id="edge16" class="edge">
<title>plot&#45;&gt;plot__average_conf_time_by_lambda</title>
<path fill="none" stroke="#000000" d="M524.93,-172.08C469.88,-162.07 342.77,-138.96 255.84,-123.15"/>
<polygon fill="#000000" stroke="#000000" points="256.44,-119.7 245.97,-121.36 255.19,-126.59 256.44,-119.7"/>
</g>
<!-- plot__find_indirect_refs -->
<g id="node18" class="node">
<title>plot__find_indirect_refs</title>
<ellipse fill="#ffffff" fill-opacity="0.698039" stroke="black" cx="427" cy="-106" rx="90.98" ry="18"/>
<text text-anchor="middle" x="427" y="-102.3" font-family="Times,serif" font-size="14.00" fill="#000000">find_indirect_refs</text>
</g>
<!-- plot&#45;&gt;plot__find_indirect_refs -->
<g id="edge18" class="edge">
<title>plot&#45;&gt;plot__find_indirect_refs</title>
<path fill="none" stroke="#000000" d="M531.36,-165.44C513.4,-155.38 486.9,-140.55 465.11,-128.34"/>
<polygon fill="#000000" stroke="#000000" points="466.53,-125.12 456.09,-123.29 463.11,-131.23 466.53,-125.12"/>
</g>
<!-- plot__milestone_conf_by_layer -->
<g id="node20" class="node">
<title>plot__milestone_conf_by_layer</title>
<ellipse fill="#ffffff" fill-opacity="0.698039" stroke="black" cx="677" cy="-106" rx="123.48" ry="18"/>
<text text-anchor="middle" x="677" y="-102.3" font-family="Times,serif" font-size="14.00" fill="#000000">milestone_conf_by_layer</text>
</g>
<!-- plot&#45;&gt;plot__milestone_conf_by_layer -->
<g id="edge15" class="edge">
<title>plot&#45;&gt;plot__milestone_conf_by_layer</title>
<path fill="none" stroke="#000000" d="M572.64,-165.44C590.48,-155.45 616.74,-140.75 638.45,-128.59"/>
<polygon fill="#000000" stroke="#000000" points="640.43,-131.49 647.44,-123.55 637.01,-125.39 640.43,-131.49"/>
</g>
<!-- plot__tx_num_conf_by_each_milestone -->
<g id="node22" class="node">
<title>plot__tx_num_conf_by_each_milestone</title>
<ellipse fill="#ffffff" fill-opacity="0.698039" stroke="black" cx="978" cy="-106" rx="159.77" ry="18"/>
<text text-anchor="middle" x="978" y="-102.3" font-family="Times,serif" font-size="14.00" fill="#000000">tx_num_conf_by_each_milestone</text>
</g>
<!-- plot&#45;&gt;plot__tx_num_conf_by_each_milestone -->
<g id="edge17" class="edge">
<title>plot&#45;&gt;plot__tx_num_conf_by_each_milestone</title>
<path fill="none" stroke="#000000" d="M579.3,-172.51C639.13,-162.68 784.26,-138.83 881.91,-122.79"/>
<polygon fill="#000000" stroke="#000000" points="882.49,-126.24 891.79,-121.17 881.36,-119.33 882.49,-126.24"/>
</g>
<!-- cal_layered_conf_num__find_indirect_refs&#45;&gt;cal_layered_conf_num__find_indirect_refs -->
<g id="edge3" class="edge">
<title>cal_layered_conf_num__find_indirect_refs&#45;&gt;cal_layered_conf_num__find_indirect_refs</title>
<path fill="none" stroke="#000000" d="M3536.08,-119.36C3561.95,-120.37 3583.99,-115.91 3583.99,-106 3583.99,-97.4 3567.42,-92.91 3546.14,-92.53"/>
<polygon fill="#000000" stroke="#000000" points="3546.04,-89.03 3536.08,-92.64 3546.11,-96.03 3546.04,-89.03"/>
</g>
<!-- cal_layered_conf_num__find_layers_refs&#45;&gt;cal_layered_conf_num__find_layers_refs -->
<g id="edge4" class="edge">
<title>cal_layered_conf_num__find_layers_refs&#45;&gt;cal_layered_conf_num__find_layers_refs</title>
<path fill="none" stroke="#000000" d="M3740.94,-119.33C3765.29,-120.46 3786.19,-116.02 3786.19,-106 3786.19,-97.39 3770.76,-92.9 3750.96,-92.53"/>
<polygon fill="#000000" stroke="#000000" points="3750.88,-89.03 3740.94,-92.67 3750.99,-96.03 3750.88,-89.03"/>
</g>
<!-- check_layered_conf_norm__generate_exam_arr&#45;&gt;check_layered_conf_norm__generate_exam_arr -->
<g id="edge12" class="edge">
<title>check_layered_conf_norm__generate_exam_arr&#45;&gt;check_layered_conf_norm__generate_exam_arr</title>
<path fill="none" stroke="#000000" d="M1876.07,-119.39C1903.71,-120.27 1927.09,-115.81 1927.09,-106 1927.09,-97.42 1909.19,-92.93 1886.2,-92.53"/>
<polygon fill="#000000" stroke="#000000" points="1886.04,-89.03 1876.07,-92.61 1886.09,-96.03 1886.04,-89.03"/>
</g>
<!-- plot__find_indirect_refs&#45;&gt;plot__find_indirect_refs -->
<g id="edge19" class="edge">
<title>plot__find_indirect_refs&#45;&gt;plot__find_indirect_refs</title>
<path fill="none" stroke="#000000" d="M488.08,-119.36C513.95,-120.37 535.99,-115.91 535.99,-106 535.99,-97.4 519.42,-92.91 498.14,-92.53"/>
<polygon fill="#000000" stroke="#000000" points="498.04,-89.03 488.08,-92.64 498.11,-96.03 498.04,-89.03"/>
</g>
<!-- plot__find_layers_refs -->
<g id="node19" class="node">
<title>plot__find_layers_refs</title>
<ellipse fill="#ffffff" fill-opacity="0.698039" stroke="black" cx="677" cy="-34" rx="83.39" ry="18"/>
<text text-anchor="middle" x="677" y="-30.3" font-family="Times,serif" font-size="14.00" fill="#000000">find_layers_refs</text>
</g>
<!-- plot__find_layers_refs&#45;&gt;plot__find_layers_refs -->
<g id="edge20" class="edge">
<title>plot__find_layers_refs&#45;&gt;plot__find_layers_refs</title>
<path fill="none" stroke="#000000" d="M732.94,-47.33C757.29,-48.46 778.19,-44.02 778.19,-34 778.19,-25.39 762.76,-20.9 742.96,-20.53"/>
<polygon fill="#000000" stroke="#000000" points="742.88,-17.03 732.94,-20.67 742.99,-24.03 742.88,-17.03"/>
</g>
<!-- plot__milestone_conf_by_layer&#45;&gt;plot__find_layers_refs -->
<g id="edge21" class="edge">
<title>plot__milestone_conf_by_layer&#45;&gt;plot__find_layers_refs</title>
<path fill="none" stroke="#000000" d="M677,-87.7C677,-79.98 677,-70.71 677,-62.11"/>
<polygon fill="#000000" stroke="#000000" points="680.5,-62.1 677,-52.1 673.5,-62.1 680.5,-62.1"/>
</g>
<!-- plot__store_indirect_refs_csv -->
<g id="node21" class="node">
<title>plot__store_indirect_refs_csv</title>
<ellipse fill="#ffffff" fill-opacity="0.698039" stroke="black" cx="323" cy="-178" rx="116.98" ry="18"/>
<text text-anchor="middle" x="323" y="-174.3" font-family="Times,serif" font-size="14.00" fill="#000000">store_indirect_refs_csv</text>
</g>
</g>
</svg>

